<?xml version="1.0" encoding="utf-8"?>
<svg version="1.1" id="Layer_1" xmlns="http://www.w3.org/2000/svg" xmlns:xlink="http://www.w3.org/1999/xlink" x="0px" y="0px"
	 width="560px" height="201px" viewBox="0 147.5 560 201" enable-background="new 0 147.5 560 201" xml:space="preserve">
  <defs>
    <style>
      .cls-1 {
        fill: #06356D;
      }

      .cls-2 {
        fill: #b99b4d;
      }
    </style>
  </defs>
<g id="vbrCYI">
	<g class="cls-1">
		<path d="M93.251,251.905c-8.986,4.351-18.117,6.72-27.911,6.8l-26.053,0.211v41.707H6.5V153.784l57.064,0.121
			c10.562,0.025,20.317,2.385,29.62,6.733c13.612,6.771,22.835,18.95,25.102,34.019c3.578,23.841-2.546,45.721-25.034,57.263
			L93.251,251.905L93.251,251.905z M84.995,213.898c1.495-6.163,1.217-11.875-0.716-17.628c-3.103-8.294-10.734-13.98-19.813-14.047
			l-25.18-0.198v48.637l24.914-0.186C74.261,230.396,82.423,223.638,84.995,213.898L84.995,213.898z"/>
		<path d="M269.364,341.041c-6.466,1.87-12.629,2.584-19.162,2.877h-23.579v-26.994l26.096-0.197
			c6.36-0.057,11.25-3.752,13.543-9.346l2.454-8.943l-20.808-0.238l-33.675-106.883h32.203l24.33,81.888l4.046-0.03l19.771-81.859
			h30.495l-31.223,120.438C289.881,325.629,283.73,336.43,269.364,341.041L269.364,341.041z"/>
		<path d="M348.298,299.988c-12.906-5.113-20.423-16.661-20.607-30.177c-0.095-6.72,0.82-13.106,4.479-18.778
			c8.071-12.499,25.855-17.201,40.327-17.293l24.279-0.159c0.146-4.798-0.743-9.449-3.908-12.803
			c-2.903-3.087-6.959-3.87-11.171-4.32l-41.946,1.512v-26.957c13.904-1.086,27.222-1.605,40.964-1.392
			c8.572,0.517,16.58,1.71,24.346,5.076c15.954,6.918,22.448,21.072,22.448,38.233v67.72h-25.324l-0.13-19.813
			c-4.178,10.948-11.836,18.687-23.008,21.231c-10.179,2.318-20.849,1.867-30.776-2.069L348.298,299.988z M387.934,278.796
			c4.854-3.167,7.556-7.99,8.364-13.599l0.529-13.953l-23.047,0.226c-8.799,0.08-14.871,7.129-14.458,15.635
			c0.29,5.992,3.697,11.106,9.581,13.005c6.202,2.001,12.936,1.628,19.027-1.329v0.015H387.934z"/>
		<path d="M554.563,300.57l-34.63,0.078l-23.563-39.529c-1.205-0.148-2.267-0.137-3.395,0.066l-21.982,39.424h-32.564l32.191-55.527
			l-30.932-53.712l34.63-0.092l19.64,36.879c1.142,0.241,2.294,0.226,3.367-0.039l18.604-36.815l32.481,0.027l-28.892,53.065
			l35.066,56.179h-0.024v-0.004H554.563z"/>
		<rect x="126.499" y="230.014" width="84.246" height="28.464"/>
	</g>
</g>
</svg>
